<?xml version="1.0" encoding="UTF-8"?>
<svg width="1200pt" height="1200pt" version="1.1" viewBox="0 0 1200 1200" xmlns="http://www.w3.org/2000/svg">
 <path d="m300 999.98c0-82.828 67.172-150 150-150h300c82.828 0 150 67.172 150 150v100.03c0 27.609-22.406 49.969-50.016 49.969h-499.97c-27.609 0-50.016-22.359-50.016-49.969zm150-49.969c-27.609 0-50.016 22.359-50.016 49.969v50.016h400.03v-50.016c0-27.609-22.406-49.969-50.016-49.969z" fill-rule="evenodd"/>
 <path d="m350.02 500.02c0-27.609 22.359-50.016 49.969-50.016h400.03c27.609 0 49.969 22.406 49.969 50.016v150c0 27.609-22.359 49.969-49.969 49.969h-400.03c-27.609 0-49.969-22.359-49.969-49.969zm99.984 49.969v50.016h300v-50.016z" fill-rule="evenodd"/>
 <path d="m477.1 635.63c6.375-21.141 25.828-35.625 47.906-35.625h150c22.078 0 41.531 14.484 47.906 35.625l75 250.03c4.5469 15.094 1.6406 31.5-7.7812 44.203-9.4219 12.656-24.328 20.156-40.125 20.156h-300c-15.797 0-30.656-7.5-40.125-20.156-9.4219-12.703-12.328-29.109-7.7812-44.203zm85.125 64.359-45 150h165.56l-45-150z" fill-rule="evenodd"/>
 <path d="m635.53 64.828-35.531 35.156-35.531-35.156c9.375-9.4688 22.172-14.812 35.531-14.812s26.156 5.3438 35.531 14.812zm-35.531 109.22c-10.828 12.516-23.109 27.281-35.297 43.219-17.859 23.297-34.781 48.094-47.062 71.297-12.891 24.422-17.625 41.672-17.625 51.422 0 63.844 47.766 110.02 99.984 110.02s99.984-46.172 99.984-110.02c0-9.75-4.7344-27-17.625-51.422-12.281-23.203-29.203-48-47.062-71.297-12.188-15.938-24.469-30.703-35.297-43.219zm0-74.062-35.531-35.156-0.60938 0.60938-1.4062 1.4531c-1.2188 1.2656-2.9531 3.0469-5.1562 5.3438-4.3594 4.5938-10.5 11.203-17.859 19.359-14.672 16.266-34.359 39.047-54.141 64.875-19.641 25.641-40.219 55.359-56.062 85.406-15.234 28.875-29.25 63.703-29.25 98.109 0 112.92 86.578 210 200.02 210s200.02-97.078 200.02-210c0-34.406-14.016-69.234-29.25-98.109-15.844-30.047-36.422-59.766-56.062-85.406-19.781-25.828-39.469-48.609-54.141-64.875-7.3594-8.1562-13.5-14.766-17.859-19.359-2.2031-2.2969-3.9375-4.0781-5.1562-5.3438l-1.4062-1.4531-0.60938-0.60938z" fill-rule="evenodd"/>
</svg>
