<?xml version="1.0" encoding="UTF-8"?>
<svg width="1200pt" height="1200pt" version="1.1" viewBox="0 0 1200 1200" xmlns="http://www.w3.org/2000/svg">
 <path d="m275.02 999.98c0-82.828 67.125-150 150-150h399.98c82.828 0 150 67.172 150 150v100.03c0 27.609-22.406 49.969-50.016 49.969h-600c-27.609 0-49.969-22.359-49.969-49.969zm150-49.969c-27.609 0-50.016 22.359-50.016 49.969v50.016h500.02v-50.016c0-27.609-22.406-49.969-50.016-49.969z" fill-rule="evenodd"/>
 <path d="m330.28 77.625c8.4844-16.922 25.781-27.609 44.719-27.609h350.02c110.44 0 199.97 89.531 199.97 199.97v175.03c0 6.3281-1.2188 12.656-3.5625 18.562l-94.266 235.64 46.641 209.95c3.2812 14.766-0.32812 30.281-9.7969 42.094-9.4688 11.859-23.812 18.75-39 18.75h-399.98c-27.609 0-50.016-22.406-50.016-50.016v-225c0-11.953 4.2656-23.484 12.047-32.531l128.39-149.81-9.8438-19.641-102.84 68.578c-19.828 13.219-46.266 10.594-63.094-6.2344l-100.03-99.984c-18.609-18.656-19.594-48.469-2.25-68.297l148.31-169.5-50.672-67.594c-11.391-15.141-13.219-35.391-4.7344-52.359zm144.71 72.375 15 20.016c14.203 18.891 13.219 45.141-2.3438 62.906l-144.19 164.81 37.922 37.922 115.88-77.25c11.953-7.9688 26.719-10.406 40.594-6.75 13.828 3.7031 25.453 13.172 31.875 25.969l50.016 100.03c9 17.953 6.3281 39.609-6.75 54.891l-138 160.97v156.47h287.68l-36.469-164.16c-2.1562-9.7969-1.3594-20.062 2.3906-29.391l96.422-241.08v-165.37c0-55.219-44.766-99.984-99.984-99.984z" fill-rule="evenodd"/>
</svg>
