<?xml version="1.0" encoding="UTF-8"?>
<svg width="1200pt" height="1200pt" version="1.1" viewBox="0 0 1200 1200" xmlns="http://www.w3.org/2000/svg">
 <path d="m249.98 999.98c0-82.828 67.172-150 150-150h400.03c82.828 0 150 67.172 150 150v100.03c0 27.609-22.406 49.969-50.016 49.969h-600c-27.609 0-50.016-22.359-50.016-49.969zm150-49.969c-27.609 0-49.969 22.359-49.969 49.969v50.016h499.97v-50.016c0-27.609-22.359-49.969-49.969-49.969z" fill-rule="evenodd"/>
 <path d="m324.98 399.98c0-27.609 22.406-49.969 50.016-49.969h450c27.609 0 50.016 22.359 50.016 49.969v150c0 27.609-22.406 50.016-50.016 50.016h-450c-27.609 0-50.016-22.406-50.016-50.016zm100.03 50.016v50.016h349.97v-50.016z" fill-rule="evenodd"/>
 <path d="m426.1 539.53c4.9688-23.062 25.312-39.516 48.891-39.516h250.03c23.578 0 43.922 16.453 48.891 39.516l75 350.02c3.1406 14.766-0.51562 30.141-10.031 41.906-9.4688 11.719-23.766 18.562-38.859 18.562h-400.03c-15.094 0-29.391-6.8438-38.859-18.562-9.5156-11.766-13.172-27.141-10.031-41.906zm89.344 60.469-53.578 249.98h276.28l-53.578-249.98z" fill-rule="evenodd"/>
 <path d="m600 150c-55.219 0-99.984 44.766-99.984 99.984 0 55.266 44.766 100.03 99.984 100.03s99.984-44.766 99.984-100.03c0-55.219-44.766-99.984-99.984-99.984zm-200.02 99.984c0-110.44 89.578-199.97 200.02-199.97s200.02 89.531 200.02 199.97c0 110.48-89.578 200.02-200.02 200.02s-200.02-89.531-200.02-200.02z" fill-rule="evenodd"/>
</svg>
