<?xml version="1.0" encoding="UTF-8"?>
<svg width="1200pt" height="1200pt" version="1.1" viewBox="0 0 1200 1200" xmlns="http://www.w3.org/2000/svg">
 <path d="m249.98 999.98c0-82.828 67.172-150 150-150h400.03c82.828 0 150 67.172 150 150v100.03c0 27.609-22.406 49.969-50.016 49.969h-600c-27.609 0-50.016-22.359-50.016-49.969zm150-49.969c-27.609 0-49.969 22.359-49.969 49.969v50.016h499.97v-50.016c0-27.609-22.359-49.969-49.969-49.969z" fill-rule="evenodd"/>
 <path d="m324.98 324.98c0-27.609 22.406-49.969 50.016-49.969h450c27.609 0 50.016 22.359 50.016 49.969v150c0 27.609-22.406 50.016-50.016 50.016h-450c-27.609 0-50.016-22.406-50.016-50.016zm100.03 50.016v50.016h349.97v-50.016z" fill-rule="evenodd"/>
 <path d="m346.74 58.734c16.828-11.531 39-11.672 56.016-0.32812l84.75 56.484 84.75-56.484c16.828-11.203 38.672-11.203 55.5 0l84.75 56.484 84.75-56.484c17.016-11.344 39.188-11.203 56.016 0.32812 16.828 11.578 24.984 32.203 20.531 52.125l-49.969 225c-5.1094 22.875-25.406 39.141-48.844 39.141h-349.97c-23.438 0-43.734-16.266-48.844-39.141l-49.969-225c-4.4531-19.922 3.7031-40.547 20.531-52.125zm104.06 151.87 14.297 64.406h269.81l14.297-64.406-8.9531 6c-16.828 11.203-38.672 11.203-55.5 0l-84.75-56.531-84.75 56.531c-16.828 11.203-38.672 11.203-55.5 0z" fill-rule="evenodd"/>
 <path d="m425.76 466.31c4.2188-23.906 24.984-41.297 49.219-41.297h250.03c24.234 0 45 17.391 49.219 41.297l75 425.02c2.5781 14.531-1.4062 29.484-10.922 40.828-9.5156 11.297-23.531 17.859-38.297 17.859h-400.03c-14.766 0-28.781-6.5625-38.297-17.859-9.4688-11.344-13.5-26.297-10.922-40.828zm91.172 58.688-57.328 324.98h280.78l-57.328-324.98z" fill-rule="evenodd"/>
</svg>
