<?xml version="1.0" encoding="UTF-8"?>
<svg width="1200pt" height="1200pt" version="1.1" viewBox="0 0 1200 1200" xmlns="http://www.w3.org/2000/svg">
 <path d="m200.02 999.98c0-82.828 67.125-150 150-150h499.97c82.875 0 150 67.172 150 150v100.03c0 27.609-22.359 49.969-49.969 49.969h-700.03c-27.609 0-49.969-22.359-49.969-49.969zm150-49.969c-27.609 0-50.016 22.359-50.016 49.969v50.016h600v-50.016c0-27.609-22.406-49.969-50.016-49.969z" fill-rule="evenodd"/>
 <path d="m225 150c0-27.609 22.406-50.016 50.016-50.016h124.97c27.609 0 50.016 22.406 50.016 50.016v50.016h24.984v-50.016c0-27.609 22.406-50.016 50.016-50.016h150c27.609 0 50.016 22.406 50.016 50.016v50.016h24.984v-50.016c0-27.609 22.406-50.016 50.016-50.016h124.97c27.609 0 50.016 22.406 50.016 50.016v249.98c0 20.438-12.469 38.859-31.453 46.453l-124.97 49.969c-5.9062 2.3906-12.234 3.6094-18.562 3.6094h-400.03c-6.3281 0-12.656-1.2188-18.562-3.6094l-124.97-49.969c-18.984-7.5938-31.453-26.016-31.453-46.453zm624.98 50.016v49.969c0 27.609-22.359 50.016-49.969 50.016h-125.02c-27.609 0-50.016-22.406-50.016-50.016v-49.969h-49.969v49.969c0 27.609-22.406 50.016-50.016 50.016h-125.02c-27.609 0-49.969-22.406-49.969-50.016v-49.969h-25.031v166.13l84.656 33.844h380.72l84.656-33.844v-166.13z" fill-rule="evenodd"/>
 <path d="m375.71 441.79c3.9844-24.141 24.844-41.812 49.312-41.812h349.97c24.469 0 45.328 17.672 49.312 41.812l75 450c2.4375 14.484-1.6406 29.297-11.156 40.5-9.4688 11.25-23.438 17.719-38.156 17.719h-499.97c-14.719 0-28.688-6.4688-38.156-17.719-9.5156-11.203-13.594-26.016-11.156-40.5zm91.641 58.219-58.312 349.97h381.94l-58.312-349.97z" fill-rule="evenodd"/>
</svg>
